<svg width="74" height="74" viewBox="0 0 74 74" fill="none" xmlns="http://www.w3.org/2000/svg">
<circle cx="37" cy="37" r="36" fill="white" stroke="black" stroke-width="2"/>
<path d="M46.8864 33.2955H43.3409C43.2045 32.5379 42.9508 31.8712 42.5795 31.2955C42.2083 30.7197 41.7538 30.2311 41.2159 29.8295C40.678 29.428 40.0758 29.125 39.4091 28.9205C38.75 28.7159 38.0492 28.6136 37.3068 28.6136C35.9659 28.6136 34.7652 28.9508 33.7045 29.625C32.6515 30.2992 31.8182 31.2879 31.2045 32.5909C30.5985 33.8939 30.2955 35.4848 30.2955 37.3636C30.2955 39.2576 30.5985 40.8561 31.2045 42.1591C31.8182 43.4621 32.6553 44.447 33.7159 45.1136C34.7765 45.7803 35.9697 46.1136 37.2955 46.1136C38.0303 46.1136 38.7273 46.0152 39.3864 45.8182C40.053 45.6136 40.6553 45.3144 41.1932 44.9205C41.7311 44.5265 42.1856 44.0455 42.5568 43.4773C42.9356 42.9015 43.197 42.2424 43.3409 41.5L46.8864 41.5114C46.697 42.6553 46.3295 43.7083 45.7841 44.6705C45.2462 45.625 44.553 46.4508 43.7045 47.1477C42.8636 47.8371 41.9015 48.3712 40.8182 48.75C39.7348 49.1288 38.553 49.3182 37.2727 49.3182C35.2576 49.3182 33.4621 48.8409 31.8864 47.8864C30.3106 46.9242 29.0682 45.5492 28.1591 43.7614C27.2576 41.9735 26.8068 39.8409 26.8068 37.3636C26.8068 34.8788 27.2614 32.7462 28.1705 30.9659C29.0795 29.178 30.322 27.8068 31.8977 26.8523C33.4735 25.8902 35.2652 25.4091 37.2727 25.4091C38.5076 25.4091 39.6591 25.5871 40.7273 25.9432C41.803 26.2917 42.7689 26.8068 43.625 27.4886C44.4811 28.1629 45.1894 28.9886 45.75 29.9659C46.3106 30.9356 46.6894 32.0455 46.8864 33.2955Z" fill="black"/>
</svg>
