<svg width="98" height="83" viewBox="0 0 98 83" fill="none" xmlns="http://www.w3.org/2000/svg">
<circle cx="37" cy="46" r="36" fill="white" stroke="black" stroke-width="2"/>
<path d="M85.4375 10.1307C85.3466 9.32386 84.9716 8.69886 84.3125 8.25568C83.6534 7.80682 82.8239 7.58239 81.8239 7.58239C81.108 7.58239 80.4886 7.69602 79.9659 7.92329C79.4432 8.14489 79.0369 8.4517 78.7472 8.84375C78.4631 9.23011 78.321 9.67045 78.321 10.1648C78.321 10.5795 78.4176 10.9375 78.6108 11.2386C78.8097 11.5398 79.0682 11.7926 79.3864 11.9972C79.7102 12.196 80.0568 12.3636 80.4261 12.5C80.7955 12.6307 81.1506 12.7386 81.4915 12.8239L83.196 13.267C83.7528 13.4034 84.3239 13.5881 84.9091 13.821C85.4943 14.054 86.0369 14.3608 86.5369 14.7415C87.0369 15.1222 87.4403 15.5938 87.7472 16.1562C88.0597 16.7188 88.2159 17.392 88.2159 18.1761C88.2159 19.1648 87.9602 20.0426 87.4489 20.8097C86.9432 21.5767 86.2074 22.1818 85.2415 22.625C84.2813 23.0682 83.1193 23.2898 81.7557 23.2898C80.4489 23.2898 79.3182 23.0824 78.3636 22.6676C77.4091 22.2528 76.6619 21.6648 76.1222 20.9034C75.5824 20.1364 75.2841 19.2273 75.2273 18.1761H77.8693C77.9205 18.8068 78.125 19.3324 78.483 19.7528C78.8466 20.1676 79.3097 20.4773 79.8722 20.6818C80.4403 20.8807 81.0625 20.9801 81.7386 20.9801C82.483 20.9801 83.1449 20.8636 83.7244 20.6307C84.3097 20.392 84.7699 20.0625 85.1051 19.642C85.4403 19.2159 85.608 18.7187 85.608 18.1506C85.608 17.6335 85.4602 17.2102 85.1648 16.8807C84.875 16.5511 84.4801 16.2784 83.9801 16.0625C83.4858 15.8466 82.9261 15.6562 82.3011 15.4915L80.2386 14.929C78.8409 14.5483 77.733 13.9886 76.9148 13.25C76.1023 12.5114 75.696 11.5341 75.696 10.3182C75.696 9.3125 75.9688 8.43466 76.5142 7.68466C77.0597 6.93466 77.7983 6.35227 78.7301 5.9375C79.6619 5.51705 80.7131 5.30682 81.8835 5.30682C83.0653 5.30682 84.108 5.5142 85.0114 5.92898C85.9205 6.34375 86.6364 6.91477 87.1591 7.64204C87.6818 8.36364 87.9545 9.19318 87.9773 10.1307H85.4375Z" fill="black"/>
<path d="M8.37467 27.5L37 79.9137L65.6253 27.5H8.37467Z" fill="white" stroke="black" stroke-width="2"/>
</svg>
